<?xml version="1.0" encoding="utf-8"?>
<!-- Generator: Adobe Illustrator 18.1.1, SVG Export Plug-In . SVG Version: 6.00 Build 0)  -->
<svg version="1.1" id="Layer_1" xmlns="http://www.w3.org/2000/svg" xmlns:xlink="http://www.w3.org/1999/xlink" x="0px" y="0px"
	 viewBox="0 0 64 64" enable-background="new 0 0 64 64" xml:space="preserve">
<path fill="#178FEB" d="M45,15.3V7.4c0,0-3-0.5-6.3-0.3c-2.4,0.1-4.9,0.4-6.5,1.3c-1.2,0.7-3.4,1.9-4.6,5.6
	c-0.7,2.1-0.7,4.7-0.7,6.8c0,2.8,0,4.6,0,4.6l-7.8,0l0,8.9l7.8-0.1L26.8,57h9l0-22.8l7.6,0l1.1-8.8l-8.8,0c0,0-0.2-5.7,0-6.9
	c0.2-1.2,0.9-2.5,2.2-2.8C39.1,15.4,45,15.3,45,15.3z"/>
</svg>
