<?xml version="1.0" encoding="utf-8"?>
<!-- Generator: Adobe Illustrator 18.1.1, SVG Export Plug-In . SVG Version: 6.00 Build 0)  -->
<svg version="1.1" id="Layer_1" xmlns="http://www.w3.org/2000/svg" xmlns:xlink="http://www.w3.org/1999/xlink" x="0px" y="0px"
	 viewBox="0 0 64 64" enable-background="new 0 0 64 64" xml:space="preserve">
<g>
	<path fill="#178FEB" d="M43.2,13v10.7c-0.2,0.3-0.5,0.6-0.9,0.8c-0.3,0.2-0.6,0.3-0.8,0.3c-0.2,0-0.4-0.1-0.6-0.2
		c-0.1-0.2-0.2-0.4-0.2-0.7V13H38v11.8c0,0.9,0.2,1.5,0.5,1.9c0.3,0.4,0.8,0.6,1.5,0.6c0.6,0,1.1-0.1,1.7-0.4
		c0.6-0.3,1.1-0.7,1.6-1.3v1.6h2.8V13H43.2z M34.6,13.7c-0.7-0.7-1.7-1-2.9-1c-1.3,0-2.3,0.3-3.1,1c-0.7,0.6-1.1,1.5-1.1,2.6v7.3
		c0,1.2,0.4,2.1,1.1,2.9c0.8,0.7,1.8,1.1,3,1.1c1.3,0,2.3-0.3,3-1c0.8-0.7,1.1-1.6,1.1-2.8v-7.3C35.7,15.3,35.4,14.4,34.6,13.7z
		 M32.9,23.8c0,0.4-0.1,0.7-0.3,0.9c-0.2,0.2-0.5,0.3-0.9,0.3c-0.4,0-0.7-0.1-0.9-0.3c-0.2-0.2-0.3-0.5-0.3-0.9v-7.7
		c0-0.3,0.1-0.6,0.3-0.7c0.2-0.2,0.5-0.3,0.8-0.3c0.4,0,0.7,0.1,0.9,0.3c0.2,0.2,0.3,0.4,0.3,0.7V23.8z M24.1,8l-2,7.7h-0.2l-2-7.7
		h-3.2l3.8,11.6v7.6h3.2v-7.9L27.3,8H24.1z M46.1,41.7c0.2,0.2,0.2,0.6,0.2,1.1v1.3h-2.2v-1.3c0-0.5,0.1-0.9,0.3-1.1
		c0.2-0.2,0.4-0.4,0.9-0.4C45.7,41.3,46,41.5,46.1,41.7z M37.4,41.6c-0.2-0.2-0.4-0.3-0.8-0.3c-0.2,0-0.4,0-0.5,0.1
		c-0.2,0.1-0.4,0.2-0.5,0.4v8c0.2,0.2,0.4,0.4,0.6,0.5c0.2,0.1,0.4,0.1,0.6,0.1c0.3,0,0.5-0.1,0.7-0.3c0.1-0.2,0.2-0.5,0.2-0.9v-6.6
		C37.7,42.2,37.6,41.9,37.4,41.6z M37.4,41.6c-0.2-0.2-0.4-0.3-0.8-0.3c-0.2,0-0.4,0-0.5,0.1c-0.2,0.1-0.4,0.2-0.5,0.4v8
		c0.2,0.2,0.4,0.4,0.6,0.5c0.2,0.1,0.4,0.1,0.6,0.1c0.3,0,0.5-0.1,0.7-0.3c0.1-0.2,0.2-0.5,0.2-0.9v-6.6
		C37.7,42.2,37.6,41.9,37.4,41.6z M51.7,31.7H12.3c-4.3,0-7.8,3.6-7.8,8V48c0,4.4,3.5,8,7.8,8h39.3c4.3,0,7.8-3.6,7.8-8v-8.2
		C59.5,35.4,56,31.7,51.7,31.7z M22.9,37.4H20v14.8h-2.8V37.4h-2.9v-2.5h8.7V37.4z M31.2,52.2h-2.5v-1.4c-0.4,0.5-0.9,0.9-1.4,1.2
		c-0.5,0.3-1,0.4-1.4,0.4c-0.6,0-1-0.2-1.3-0.6c-0.3-0.4-0.4-0.9-0.4-1.7V39.4h2.5v9.9c0,0.3,0.1,0.5,0.2,0.6
		c0.1,0.1,0.3,0.2,0.5,0.2c0.2,0,0.4-0.1,0.7-0.3c0.3-0.2,0.6-0.4,0.8-0.7v-9.7h2.5V52.2z M40.3,49.6c0,0.9-0.2,1.6-0.6,2.1
		c-0.4,0.5-1,0.7-1.7,0.7c-0.5,0-0.9-0.1-1.3-0.3c-0.4-0.2-0.7-0.5-1.1-0.9v1h-2.5V34.9h2.5v5.6c0.3-0.4,0.7-0.7,1.1-0.9
		c0.4-0.2,0.8-0.3,1.2-0.3c0.8,0,1.4,0.3,1.8,0.8c0.4,0.5,0.6,1.3,0.6,2.4V49.6z M49,46.1h-4.8v2.4c0,0.7,0.1,1.1,0.2,1.4
		c0.2,0.3,0.5,0.4,0.9,0.4c0.4,0,0.7-0.1,0.9-0.3c0.2-0.2,0.2-0.7,0.2-1.4V48H49v0.6c0,1.3-0.3,2.3-1,3c-0.6,0.7-1.6,1-2.8,1
		c-1.1,0-2-0.3-2.7-1c-0.6-0.7-1-1.7-1-2.9v-5.8c0-1.1,0.4-2,1.1-2.7c0.7-0.7,1.6-1,2.7-1c1.1,0,2,0.3,2.6,1c0.6,0.7,1,1.6,1,2.8
		V46.1z M36.7,41.3c-0.2,0-0.4,0-0.5,0.1c-0.2,0.1-0.4,0.2-0.5,0.4v8c0.2,0.2,0.4,0.4,0.6,0.5c0.2,0.1,0.4,0.1,0.6,0.1
		c0.3,0,0.5-0.1,0.7-0.3c0.1-0.2,0.2-0.5,0.2-0.9v-6.6c0-0.4-0.1-0.7-0.3-1C37.3,41.4,37,41.3,36.7,41.3z M37.4,41.6
		c-0.2-0.2-0.4-0.3-0.8-0.3c-0.2,0-0.4,0-0.5,0.1c-0.2,0.1-0.4,0.2-0.5,0.4v8c0.2,0.2,0.4,0.4,0.6,0.5c0.2,0.1,0.4,0.1,0.6,0.1
		c0.3,0,0.5-0.1,0.7-0.3c0.1-0.2,0.2-0.5,0.2-0.9v-6.6C37.7,42.2,37.6,41.9,37.4,41.6z M37.4,41.6c-0.2-0.2-0.4-0.3-0.8-0.3
		c-0.2,0-0.4,0-0.5,0.1c-0.2,0.1-0.4,0.2-0.5,0.4v8c0.2,0.2,0.4,0.4,0.6,0.5c0.2,0.1,0.4,0.1,0.6,0.1c0.3,0,0.5-0.1,0.7-0.3
		c0.1-0.2,0.2-0.5,0.2-0.9v-6.6C37.7,42.2,37.6,41.9,37.4,41.6z"/>
</g>
</svg>
