<?xml version="1.0" encoding="utf-8"?>
<!-- Generator: Adobe Illustrator 18.1.1, SVG Export Plug-In . SVG Version: 6.00 Build 0)  -->
<svg version="1.1" id="Layer_1" xmlns="http://www.w3.org/2000/svg" xmlns:xlink="http://www.w3.org/1999/xlink" x="0px" y="0px"
	 viewBox="0 0 64 64" enable-background="new 0 0 64 64" xml:space="preserve">
<g>
	<path fill="#178FEB" d="M56.4,21.2c-1-1.2-2.4-2.5-4.4-3.3c0.3-0.3,0.6-0.6,0.9-0.9c0.9-1.2,1.4-2.9,1.4-4.6c0-1.7-0.5-3.4-1.4-4.6
		c-1.1-1.5-2.6-2.2-4.5-2.2c-1.8,0-3.4,0.8-4.5,2.2c-0.9,1.2-1.4,2.9-1.4,4.6c0,1.7,0.5,3.4,1.4,4.6c0.2,0.3,0.5,0.6,0.8,0.9
		c-2,0.7-3.5,1.9-4.4,3c0,0-0.1,0.1-0.1,0.1c0,0-0.1-0.1-0.1-0.1c-1-1.1-2.4-2.3-4.4-3c0.3-0.3,0.6-0.6,0.8-0.9
		c0.9-1.2,1.4-2.9,1.4-4.6c0-1.7-0.5-3.4-1.4-4.6c-1.1-1.5-2.6-2.2-4.5-2.2c-1.8,0-3.4,0.8-4.5,2.2c-0.9,1.2-1.4,2.9-1.4,4.6
		c0,1.7,0.5,3.4,1.4,4.6c0.2,0.3,0.5,0.6,0.8,0.9c-2,0.7-3.5,1.9-4.4,3c0,0-0.1,0.1-0.1,0.1c0,0-0.1-0.1-0.1-0.1
		c-1-1.1-2.4-2.3-4.4-3c0.3-0.3,0.6-0.6,0.8-0.9c0.9-1.2,1.4-2.9,1.4-4.6c0-1.7-0.5-3.4-1.4-4.6c-1.1-1.5-2.6-2.2-4.5-2.2
		c-1.8,0-3.4,0.8-4.5,2.2c-0.9,1.2-1.4,2.9-1.4,4.6c0,1.7,0.5,3.4,1.4,4.6c0.3,0.4,0.5,0.7,0.9,0.9c-3.3,1.2-5.4,4-6.4,6.6
		c-0.2,0.5,0,1.1,0.5,1.3c0.5,0.2,1.1,0,1.3-0.5c0.6-1.6,1.7-3.1,3-4.1c1.5-1.3,3.3-1.9,5.3-1.9c3.3,0,5.5,1.6,6.6,2.9
		c0.1,0.1,0.3,0.3,0.4,0.5c-0.9,1.5-1.4,3.3-1.4,4.8c0,1.8,0.3,2.8,0.9,3.4c0.6,0.5,1.2,0.5,1.6,0.5c0.1,0,0.2,0,0.2,0
		c0.4,0,1,0,1.6-0.5c0.6-0.6,0.9-1.6,0.9-3.4c0-1.5-0.5-3.3-1.4-4.8c0.1-0.2,0.2-0.3,0.4-0.5c1.2-1.3,3.3-2.9,6.6-2.9
		c3.3,0,5.5,1.6,6.6,2.9c0.1,0.1,0.3,0.3,0.4,0.5c-0.9,1.5-1.4,3.3-1.4,4.8c0,1.8,0.3,2.8,0.9,3.4c0.6,0.5,1.2,0.5,1.6,0.5
		c0.1,0,0.2,0,0.2,0c0.4,0,1,0,1.6-0.5c0.6-0.6,0.9-1.6,0.9-3.4c0-1.5-0.5-3.3-1.4-4.8c0.1-0.2,0.2-0.3,0.4-0.5
		c1.2-1.3,3.3-2.9,6.6-2.9c3.3,0,5.4,1.8,6.6,3.2c1.7,2,2.2,4.3,2.2,5.6c0,2.6-1.5,3.3-2.9,3.9c-1,0.4-4.1,0.6-7.1,0.7
		c-3.4,0.1-7.2,0.3-10.2,0.9c-1.7,0.3-4.2,1.5-4.2,6.2s0,16.2,0,16.2c0,0.4-0.6,0.7-1,0.7c-0.4,0-1-0.3-1-0.7c0,0,0-11.4,0-16.2
		s-2.3-5.9-4-6.2c-3-0.6-6.8-0.7-10.2-0.9c-3-0.1-6.1-0.3-7.1-0.7c-1.2-0.5-2.5-1.1-2.8-3c-0.1-0.5-0.5-0.9-1-0.9H5.8
		C5.3,28,5,28.5,5,29v19.5c0,3.9,2.6,5,4,5.7c1.3,0.6,4.2,0.7,7.8,0.8c3.3,0.1,7.1,0.3,10,0.9c2.9,0.5,3.9,1.3,4.2,1.9
		c0,0.1,0.1,0.1,0.1,0.2c0.2,0.3,0.5,0.6,0.9,0.6c0.4,0,0.7-0.2,0.9-0.5c0.1-0.1,0.1-0.1,0.2-0.2c0.3-0.6,1.3-1.4,4.2-1.9
		c2.9-0.6,6.7-0.7,10-0.9c3.6-0.2,6.5-0.3,7.8-0.8c1.3-0.6,3.4-1.6,3.8-4.8c0-0.2-0.1-0.6-0.1-0.9V28.1C58.8,25.9,58,23.3,56.4,21.2
		z M15.7,17.3c-2.7,0-3.9-2.6-3.9-4.9c0-2.4,1.2-4.9,3.9-4.9c2.7,0,3.9,2.6,3.9,4.9C19.6,14.7,18.4,17.3,15.7,17.3z M24.2,29.4
		c0,0.1-0.2,0.2-0.4,0.2c-0.2,0-0.4-0.2-0.4-0.2c-0.1-0.1-0.3-0.6-0.3-2c0-0.8,0.2-1.8,0.7-2.8c0.5,1,0.7,2,0.7,2.8
		C24.5,28.9,24.3,29.3,24.2,29.4z M32.1,17.3c-2.7,0-3.9-2.6-3.9-4.9c0-1.3,0.4-2.6,1-3.5c0.7-1,1.7-1.4,2.9-1.4
		c2.7,0,3.9,2.6,3.9,4.9c0,1.3-0.4,2.6-1,3.5C34.3,16.8,33.3,17.3,32.1,17.3z M40.6,29.4c0,0.1-0.2,0.2-0.4,0.2
		c-0.2,0-0.4-0.2-0.4-0.2c-0.1-0.1-0.3-0.6-0.3-2c0-0.8,0.2-1.8,0.7-2.8c0.5,1,0.7,2,0.7,2.8C40.9,28.8,40.7,29.3,40.6,29.4z
		 M48.4,17.3c-2.7,0-3.9-2.6-3.9-4.9c0-1.3,0.4-2.6,1-3.5c0.7-1,1.7-1.4,2.9-1.4c2.7,0,3.9,2.6,3.9,4.9
		C52.4,14.7,51.1,17.3,48.4,17.3z M23.9,47H12v-1h12V47z M23.9,42H12v-1h12V42z M51.9,47h-12v-1h12V47z M51.9,42h-12v-1h12V42z"/>
</g>
</svg>
