<?xml version="1.0" encoding="utf-8"?>
<!-- Generator: Adobe Illustrator 18.1.1, SVG Export Plug-In . SVG Version: 6.00 Build 0)  -->
<svg version="1.1" id="Layer_1" xmlns="http://www.w3.org/2000/svg" xmlns:xlink="http://www.w3.org/1999/xlink" x="0px" y="0px"
	 viewBox="0 0 64 64" enable-background="new 0 0 64 64" xml:space="preserve">
<symbol  id="palikka" viewBox="-5.5 -5.5 11 11">
	<polygon fill="#178FEB" points="5.5,-5.5 -5.5,-5.5 -5.5,5.5 5.5,5.5 	"/>
</symbol>
<g>
	<g>
		<path fill="#178FEB" d="M31.9,15.8c9,0,16.4,7.4,16.4,16.4S41,48.6,31.9,48.6s-16.4-7.4-16.4-16.4S22.9,15.8,31.9,15.8 M31.9,9.8
			c-12.4,0-22.4,10-22.4,22.4c0,12.4,10,22.4,22.4,22.4s22.4-10,22.4-22.4C54.3,19.8,44.3,9.8,31.9,9.8L31.9,9.8z"/>
	</g>
	
		<use xlink:href="#palikka"  width="11" height="11" x="-5.5" y="-5.5" transform="matrix(0.9955 0 0 -0.9966 31.9097 9.9813)" overflow="visible"/>
	
		<use xlink:href="#palikka"  width="11" height="11" x="-5.5" y="-5.5" transform="matrix(0.9955 0 0 -0.9683 32.0134 54.1744)" overflow="visible"/>
	
		<use xlink:href="#palikka"  width="11" height="11" x="-5.5" y="-5.5" transform="matrix(0.9955 0 0 -0.9683 9.9751 32.1818)" overflow="visible"/>
	<g>
		
			<use xlink:href="#palikka"  width="11" height="11" x="-5.5" y="-5.5" transform="matrix(0.7039 -0.7047 -0.6839 -0.6847 16.5701 16.4853)" overflow="visible"/>
		
			<use xlink:href="#palikka"  width="11" height="11" x="-5.5" y="-5.5" transform="matrix(0.7039 -0.7047 -0.6839 -0.6847 47.9276 47.8783)" overflow="visible"/>
	</g>
	<g>
		
			<use xlink:href="#palikka"  width="11" height="11" x="-5.5" y="-5.5" transform="matrix(-0.7039 -0.7047 0.6839 -0.6847 47.9276 16.4853)" overflow="visible"/>
		
			<use xlink:href="#palikka"  width="11" height="11" x="-5.5" y="-5.5" transform="matrix(-0.7039 -0.7047 0.6839 -0.6847 16.5701 47.8783)" overflow="visible"/>
	</g>
	
		<use xlink:href="#palikka"  width="11" height="11" x="-5.5" y="-5.5" transform="matrix(0.9955 0 0 -0.9683 54.0249 32.1818)" overflow="visible"/>
</g>
</svg>
