<?xml version="1.0" encoding="utf-8"?>
<!-- Generator: Adobe Illustrator 18.1.1, SVG Export Plug-In . SVG Version: 6.00 Build 0)  -->
<svg version="1.1" id="Layer_1" xmlns="http://www.w3.org/2000/svg" xmlns:xlink="http://www.w3.org/1999/xlink" x="0px" y="0px"
	 viewBox="0 0 64 64" enable-background="new 0 0 64 64" xml:space="preserve">
<g id="hKmGJF.tif_2_">
	<g>
		<path fill="#178FEB" d="M8.5,47.1C8.5,47.1,8.5,47.1,8.5,47.1C8.6,47,8.6,47,8.7,47.1c1.5,0.2,3,0.2,4.5,0
			c3.5-0.4,6.6-1.7,9.4-3.9c0.1,0,0.1-0.1,0.2-0.2c-0.2,0-0.4,0-0.5,0c-0.2,0-0.4,0-0.5-0.1c-3.8-0.7-6.4-2.8-7.8-6.5
			c-0.1-0.2-0.1-0.3,0.2-0.2c1,0.2,2.1,0.2,3.1,0c0.3,0,0.6-0.1,0.8-0.2c0,0,0,0,0,0c0,0-0.1,0-0.1,0c-2.3-0.6-4.2-1.9-5.6-3.9
			c-1.2-1.7-1.7-3.5-1.8-5.6c0-0.3,0-0.3,0.2-0.2c0.9,0.5,1.9,0.8,2.9,1c0.3,0.1,0.7,0.1,1.1,0.1c0-0.1-0.1-0.1-0.2-0.2
			c-0.8-0.6-1.4-1.2-2-2c-2-2.8-2.5-5.8-1.5-9.1c0.2-0.6,0.4-1.2,0.7-1.7c0.1-0.1,0.2-0.2,0.3,0c0,0,0,0.1,0.1,0.1
			c1,1.2,2,2.3,3.2,3.3c3.1,2.7,6.5,4.6,10.4,5.7c1.9,0.5,3.8,0.9,5.7,1c0.3,0,0.3,0,0.3-0.3c-0.2-1.1-0.2-2.2-0.1-3.2
			c0.5-3.9,3.4-7.2,7.1-8.2c0.5-0.1,1.1-0.2,1.6-0.3c0.6,0,1.2,0,1.8,0c0.1,0,0.1,0,0.2,0c2.2,0.3,4.2,1.2,5.8,2.8
			c0.2,0.2,0.4,0.2,0.6,0.2c2-0.4,3.8-1.2,5.5-2.2c0.1,0,0.1-0.1,0.2,0c0,0,0,0.1,0,0.2c0,0,0,0,0,0.1c-0.7,2.1-2,3.7-3.8,4.9
			c-0.1,0-0.1,0.1-0.2,0.2c1.8-0.2,3.6-0.7,5.3-1.5c0,0.1,0,0.1,0,0.1c-0.1,0.1-0.1,0.2-0.2,0.2c-1.2,1.7-2.6,3.3-4.3,4.5
			c-0.2,0.2-0.3,0.3-0.3,0.6c0,0.6,0,1.1,0,1.7c0,1.1-0.1,2.3-0.3,3.4c-1.1,6.5-3.9,12.1-8.6,16.6c-1.8,1.7-3.8,3.1-5.9,4.2
			c-3.6,1.9-7.5,2.8-11.5,2.9c-1.6,0.1-3.2,0-4.8-0.2c-3.9-0.5-7.5-1.9-10.9-4C8.7,47.2,8.6,47.1,8.5,47.1z"/>
	</g>
</g>
</svg>
