<?xml version="1.0" encoding="utf-8"?>
<!-- Generator: Adobe Illustrator 18.1.1, SVG Export Plug-In . SVG Version: 6.00 Build 0)  -->
<svg version="1.1" id="Layer_1" xmlns="http://www.w3.org/2000/svg" xmlns:xlink="http://www.w3.org/1999/xlink" x="0px" y="0px"
	 viewBox="0 0 64 64" enable-background="new 0 0 64 64" xml:space="preserve">
<g>
	<path fill="#178FEB" d="M32,6.5C17.9,6.5,6.5,17.9,6.5,32S17.9,57.5,32,57.5S57.5,46.1,57.5,32S46.1,6.5,32,6.5z M33.3,41.4h-3.6
		v-3.6h3.6V41.4z M38.4,27.3c0,3.5-2.3,5.1-5.1,5.8l0,2.3h-3.7v-5c3.1-0.3,4.6-1.3,4.6-2.9v-0.1c0-1.3-1-2.1-2.5-2.1
		c-1.5,0-2.7,0.8-3.7,1.8l-2.4-2.9c1.6-1.6,3.6-2.7,6.3-2.7C35.8,21.4,38.4,23.6,38.4,27.3L38.4,27.3z"/>
</g>
</svg>
