<?xml version="1.0" encoding="utf-8"?>
<!-- Generator: Adobe Illustrator 18.1.1, SVG Export Plug-In . SVG Version: 6.00 Build 0)  -->
<svg version="1.1" id="Layer_1" xmlns="http://www.w3.org/2000/svg" xmlns:xlink="http://www.w3.org/1999/xlink" x="0px" y="0px"
	 viewBox="0 0 64 64" enable-background="new 0 0 64 64" xml:space="preserve">
<g>
	<g>
		<path fill="#178FEB" d="M22.7,19.9h3.5c2.4,0,3.8,1.4,3.8,3.6v0c0,2.4-1.7,3.6-3.9,3.7h-1.2v3.2h-2.2V19.9z M26.1,25.3
			c1.1,0,1.8-0.7,1.8-1.7v0c0-1.1-0.6-1.7-1.8-1.7h-1.2v3.4H26.1z"/>
		<path fill="#178FEB" d="M31.4,19.9h3.4c3,0,5,2.1,5,5.2v0.1c0,3.1-2,5.2-5,5.2h-3.4V19.9z M33.6,21.9v6.6h1.2
			c1.7,0,2.8-1.2,2.8-3.2v-0.1c0-2.1-1.1-3.3-2.8-3.3H33.6z"/>
		<path fill="#178FEB" d="M41.5,19.9h6.8v2h-4.6v2.4h4v2h-4v4.2h-2.2V19.9z"/>
	</g>
	<g>
		<polygon fill="#178FEB" points="55,60 9,60 9,4 55,4 55,10 15,10 15,54 49,54 49,46 55,46 		"/>
	</g>
	<g>
		<rect x="23" y="36" fill="#178FEB" width="16" height="4"/>
	</g>
	<g>
		<rect x="23" y="42" fill="#178FEB" width="16" height="4"/>
	</g>
</g>
</svg>
