<?xml version="1.0" encoding="utf-8"?>
<!-- Generator: Adobe Illustrator 18.1.1, SVG Export Plug-In . SVG Version: 6.00 Build 0)  -->
<svg version="1.1" id="Layer_1" xmlns="http://www.w3.org/2000/svg" xmlns:xlink="http://www.w3.org/1999/xlink" x="0px" y="0px"
	 viewBox="0 0 64 64" enable-background="new 0 0 64 64" xml:space="preserve">
<g>
	<g>
		<path fill="#178FEB" d="M31.6,28.8c-5.4,0-9.8-4.3-9.8-9.6c0-5.3,4.4-9.6,9.8-9.6c5.4,0,9.8,4.3,9.8,9.6
			C41.5,24.4,37.1,28.8,31.6,28.8z M31.6,12.4c-3.8,0-6.9,3-6.9,6.7c0,3.7,3.1,6.7,6.9,6.7c3.8,0,6.9-3,6.9-6.7
			C38.5,15.4,35.4,12.4,31.6,12.4z"/>
	</g>
	<g>
		<path fill="#178FEB" d="M39.3,54.5H24.7l-7.2-12.7l7.2-12.7h14.6l7.2,12.7L39.3,54.5z M26.5,51.5h10.9l5.5-9.7l-5.5-9.7H26.5
			L21,41.8L26.5,51.5z"/>
	</g>
</g>
</svg>
