<?xml version="1.0" encoding="utf-8"?>
<!-- Generator: Adobe Illustrator 18.1.1, SVG Export Plug-In . SVG Version: 6.00 Build 0)  -->
<svg version="1.1" id="Layer_1" xmlns="http://www.w3.org/2000/svg" xmlns:xlink="http://www.w3.org/1999/xlink" x="0px" y="0px"
	 viewBox="0 0 64 64" enable-background="new 0 0 64 64" xml:space="preserve">
<g>
	<g>
		<g>
			<ellipse fill="#178FEB" cx="27.1" cy="24.6" rx="13.1" ry="12.7"/>
		</g>
		<g>
			<path fill="#178FEB" d="M26.7,53c-5,0-9.9-0.8-14.7-2.3l3.6-10.6c3.9,1.3,8,1.8,12.1,1.7c3.7-0.1,7.4-0.8,10.8-2l3.8,10.5
				C37.7,52,32.9,52.8,28,53C27.6,53,27.1,53,26.7,53z"/>
		</g>
	</g>
	<path fill="#178FEB" d="M43,11c-1.2,0-2.4,0.2-3.5,0.7c3.7,2.8,6,7.3,5.9,12.2c0,0.6-0.1,1.1-0.1,1.6c2.9-1,5.1-3.7,5.2-6.9
		C50.6,14.5,47.2,11.1,43,11z"/>
	<path fill="#178FEB" d="M49.3,27.4c-1.5,0.6-3,1.1-4.6,1.4c-0.6,2.6-2,5-3.9,6.9c0.7,0,1.4,0,2.1-0.1c0.3,0,0.5,0,0.8-0.1
		c2.9-0.3,5.7-1,8.3-2.1L49.3,27.4z"/>
</g>
</svg>
