<?xml version="1.0" encoding="utf-8"?>
<!-- Generator: Adobe Illustrator 18.1.1, SVG Export Plug-In . SVG Version: 6.00 Build 0)  -->
<svg version="1.1" id="Layer_1" xmlns="http://www.w3.org/2000/svg" xmlns:xlink="http://www.w3.org/1999/xlink" x="0px" y="0px"
	 viewBox="0 0 64 64" enable-background="new 0 0 64 64" xml:space="preserve">
<g>
	<path fill="#178FEB" d="M25.4,52.6c0,0,0.9-6.8-3.5-8.2C21.9,44.4,19.3,48.9,25.4,52.6z"/>
	<path fill="#178FEB" d="M25.8,52.1c0,0-4,2.8-12,0C13.8,52.1,22.8,48.3,25.8,52.1z"/>
	<path fill="#178FEB" d="M22,49.6c0,0-6-3.9-13-2C9,47.7,13,52.5,22,49.6z"/>
	<path fill="#178FEB" d="M19.4,47.1c0,0,1.1-4.9-6.3-9.2C13.1,37.9,13.5,45,19.4,47.1z"/>
	<path fill="#178FEB" d="M11.2,37.9c0,0,2.5-4.8-0.3-9.6C10.9,28.3,6.9,31.6,11.2,37.9z"/>
	<path fill="#178FEB" d="M9,28.3c0,0,3.6-2.8,4.5-8.6C13.5,19.7,7,22.9,9,28.3z"/>
	<path fill="#178FEB" d="M10.7,19.7c0,0,8.3-1,9.8-6.2C20.5,13.5,13.1,14.3,10.7,19.7z"/>
	<path fill="#178FEB" d="M7.6,24.8c0,0-3.9-0.8-3.7-9C3.9,15.8,8.6,18.6,7.6,24.8z"/>
	<path fill="#178FEB" d="M12.3,15.8c0,0,3.6-3.6,1.3-9.8C13.6,6,9.5,10.7,12.3,15.8z"/>
	<path fill="#178FEB" d="M14.4,14.1c0,0,9.2-1.3,6.9-7.6C21.2,6.6,15.5,9.3,14.4,14.1z"/>
	<path fill="#178FEB" d="M8.7,20.7c0,0,3.6-3.6,1.3-9.8C9.9,10.9,5.9,15.6,8.7,20.7z"/>
	<path fill="#178FEB" d="M3.4,42.4c0,0,8.1-1.3,12.9,3.2C16.3,45.6,13.8,48.8,3.4,42.4z"/>
	<path fill="#178FEB" d="M12.6,42.7c0,0-3.8,0.1-8.7-6.8C3.9,35.9,13.1,37.9,12.6,42.7z"/>
	<path fill="#178FEB" d="M8.2,36c0,0-5.7-1.5-7.2-6.8C1,29.3,8.8,31.3,8.2,36z"/>
	<path fill="#178FEB" d="M7.6,31.2c0,0-5.8-1.9-5.1-8.2C2.5,22.9,9.2,27,7.6,31.2z"/>
	<path fill="#178FEB" d="M38.6,52.6c0,0-0.9-6.8,3.5-8.2C42.1,44.4,44.7,48.9,38.6,52.6z"/>
	<path fill="#178FEB" d="M38.2,52.1c0,0,4,2.8,12,0C50.2,52.1,41.2,48.3,38.2,52.1z"/>
	<path fill="#178FEB" d="M42,49.6c0,0,6-3.9,13-2C55,47.7,51,52.5,42,49.6z"/>
	<path fill="#178FEB" d="M44.6,47.1c0,0-1.1-4.9,6.3-9.2C50.9,37.9,50.5,45,44.6,47.1z"/>
	<path fill="#178FEB" d="M52.8,37.9c0,0-2.5-4.8,0.3-9.6C53.1,28.3,57.1,31.6,52.8,37.9z"/>
	<path fill="#178FEB" d="M55,28.3c0,0-3.6-2.8-4.5-8.6C50.5,19.7,57,22.9,55,28.3z"/>
	<path fill="#178FEB" d="M53.3,19.7c0,0-8.3-1-9.8-6.2C43.5,13.5,50.9,14.3,53.3,19.7z"/>
	<path fill="#178FEB" d="M56.4,24.8c0,0,3.9-0.8,3.7-9C60.1,15.8,55.4,18.6,56.4,24.8z"/>
	<path fill="#178FEB" d="M51.7,15.8c0,0-3.6-3.6-1.3-9.8C50.4,6,54.5,10.7,51.7,15.8z"/>
	<path fill="#178FEB" d="M49.6,14.1c0,0-9.2-1.3-6.9-7.6C42.8,6.6,48.5,9.3,49.6,14.1z"/>
	<path fill="#178FEB" d="M55.3,20.7c0,0-3.6-3.6-1.3-9.8C54.1,10.9,58.1,15.6,55.3,20.7z"/>
	<path fill="#178FEB" d="M60.6,42.4c0,0-8.1-1.3-12.9,3.2C47.7,45.6,50.2,48.8,60.6,42.4z"/>
	<path fill="#178FEB" d="M51.4,42.7c0,0,3.8,0.1,8.7-6.8C60.1,35.9,50.9,37.9,51.4,42.7z"/>
	<path fill="#178FEB" d="M55.8,36c0,0,5.7-1.5,7.2-6.8C63,29.3,55.2,31.3,55.8,36z"/>
	<path fill="#178FEB" d="M56.4,31.2c0,0,5.8-1.9,5.1-8.2C61.5,22.9,54.8,27,56.4,31.2z"/>
	<path fill="#178FEB" d="M41.9,50.7c0,0-0.9,0.7-2.2,1.7c-1.4,1-3.3,2.2-5.3,3.2c-1,0.5-2.1,0.9-3.1,1.3c-0.5,0.2-1,0.3-1.5,0.5
		c-0.5,0.1-0.9,0.2-1.4,0.3c-0.4,0.1-0.8,0.1-1.2,0.2c-0.3,0.1-0.7,0.1-0.9,0.1c-0.5,0-0.8,0.1-0.8,0.1v-1.5c0,0,0.3,0,0.7,0
		c0.2,0,0.5,0,0.8-0.1c0.3,0,0.7-0.1,1.1-0.1c0.4-0.1,0.8-0.2,1.3-0.3c0.4-0.1,0.9-0.3,1.4-0.4c1-0.3,2-0.7,3-1.2
		c2-0.9,3.9-2,5.2-2.9c1.4-0.9,2.2-1.6,2.2-1.6L41.9,50.7z"/>
	<path fill="#178FEB" d="M23,49.9c0,0,0.8,0.7,2.2,1.6c1.4,0.9,3.2,2,5.2,2.9c1,0.4,2,0.8,3,1.2c0.5,0.1,0.9,0.3,1.4,0.4
		c0.4,0.1,0.9,0.2,1.3,0.3c0.4,0.1,0.8,0.1,1.1,0.1c0.3,0.1,0.6,0,0.8,0.1c0.5,0,0.7,0,0.7,0V58c0,0-0.3,0-0.8-0.1
		c-0.3,0-0.6,0-0.9-0.1c-0.3-0.1-0.7-0.1-1.2-0.2c-0.4-0.1-0.9-0.2-1.4-0.3c-0.5-0.1-1-0.3-1.5-0.5c-1-0.4-2-0.8-3.1-1.3
		c-2-1-3.9-2.2-5.3-3.2c-1.4-1-2.2-1.7-2.2-1.7L23,49.9z"/>
</g>
</svg>
