<?xml version="1.0" encoding="utf-8"?>
<!-- Generator: Adobe Illustrator 18.1.1, SVG Export Plug-In . SVG Version: 6.00 Build 0)  -->
<svg version="1.1" id="Layer_1" xmlns="http://www.w3.org/2000/svg" xmlns:xlink="http://www.w3.org/1999/xlink" x="0px" y="0px"
	 viewBox="0 0 64 64" enable-background="new 0 0 64 64" xml:space="preserve">
<g>
	<g>
		<g>
			<g>
				<ellipse fill="#178FEB" cx="15.6" cy="30.5" rx="12.6" ry="12.6"/>
			</g>
			<g>
				<path fill="#178FEB" d="M15.2,58.5c-4.9,0-9.6-0.8-14.2-2.3l3.5-10.4c3.8,1.2,7.7,1.8,11.7,1.7c3.6-0.1,7.1-0.7,10.5-1.9
					l3.7,10.4c-4.4,1.6-9.1,2.4-13.8,2.5C16.1,58.5,15.6,58.5,15.2,58.5z"/>
			</g>
		</g>
		<path fill="#178FEB" d="M31,17.1c-1.2,0-2.3,0.2-3.4,0.7c3.6,2.8,5.8,7.2,5.7,12.1c0,0.5-0.1,1.1-0.1,1.6c2.9-1,4.9-3.6,5-6.8
			C38.3,20.5,35.1,17.1,31,17.1z"/>
		<path fill="#178FEB" d="M37.1,33.2c-1.4,0.6-2.9,1.1-4.5,1.4c-0.6,2.6-1.9,4.9-3.7,6.8c0.7,0,1.4,0,2.1-0.1c0.2,0,0.5,0,0.7-0.1
			c2.8-0.3,5.5-1,8-2.1L37.1,33.2z"/>
	</g>
	<line fill="none" stroke="#178FEB" stroke-width="3" stroke-miterlimit="10" x1="52.7" y1="5.5" x2="52.7" y2="26"/>
	<line fill="none" stroke="#178FEB" stroke-width="3" stroke-miterlimit="10" x1="42.4" y1="15.8" x2="63" y2="15.8"/>
</g>
</svg>
