<?xml version="1.0" encoding="utf-8"?>
<!-- Generator: Adobe Illustrator 18.1.1, SVG Export Plug-In . SVG Version: 6.00 Build 0)  -->
<svg version="1.1" id="Layer_1" xmlns="http://www.w3.org/2000/svg" xmlns:xlink="http://www.w3.org/1999/xlink" x="0px" y="0px"
	 viewBox="0 0 64 64" enable-background="new 0 0 64 64" xml:space="preserve">
<g>
	<g>
		<path fill="none" stroke="#BFBFBF" stroke-miterlimit="10" d="M61.8,21.9L61.8,21.9L61.8,21.9c0.2-2.7-13.7-8.5-30-8.5
			c-23.7,0-30,8.5-30,8.5S4,32.5,5,33.6c0,0,12.5,11.2,53.6-0.8C59.3,32.5,61.8,21.9,61.8,21.9L61.8,21.9L61.8,21.9z"/>
		<path fill="#626262" d="M4.3,37.6L5,43.3c0,0,22.7,17.1,54-1.2l0.2-4.7C59.2,37.5,25.2,45.4,4.3,37.6z"/>
		<path fill="#626262" d="M4.2,32.9l0.2,4.7c0,0,19.4,9,54.9-0.1l0.3-5.5C59.5,32,26.8,37.5,4.2,32.9z"/>
		<g opacity="0.3">
			<path fill="#FFFFFF" d="M59.2,37.5c0,0,0,0.2-1.5,0.6c-0.7,0.2-1.7,0.5-2.7,0.7c-0.5,0.1-1.1,0.3-1.7,0.4
				c-0.6,0.1-1.2,0.3-1.9,0.4c-1.3,0.3-2.7,0.6-4.2,0.9c-1.5,0.2-3.1,0.5-4.7,0.7c-1.6,0.3-3.4,0.4-5.1,0.6
				c-0.9,0.1-1.7,0.2-2.6,0.2c-0.9,0-1.8,0.1-2.7,0.1c-1.8,0.1-3.6,0-5.3,0c-1.7-0.1-3.5-0.2-5.1-0.4c-1.7-0.2-3.3-0.4-4.8-0.6
				c-1.5-0.2-2.9-0.6-4.2-0.8c-1.3-0.3-2.5-0.6-3.5-1c-1-0.3-1.9-0.6-2.7-0.9c-0.7-0.3-1.3-0.5-1.7-0.7c-0.4-0.2-0.6-0.3-0.6-0.3
				s0.2,0.1,0.6,0.3c0.4,0.2,1,0.4,1.7,0.7c0.7,0.3,1.6,0.6,2.7,0.9c1,0.3,2.2,0.6,3.5,0.9c1.3,0.3,2.7,0.6,4.2,0.8
				c1.5,0.3,3.1,0.4,4.8,0.6c1.7,0.2,3.4,0.2,5.1,0.3c1.7,0,3.5,0.1,5.3,0c0.9,0,1.8-0.1,2.7-0.1c0.9,0,1.8-0.1,2.6-0.2
				c1.7-0.2,3.5-0.3,5.1-0.5c1.6-0.2,3.2-0.5,4.7-0.7c1.5-0.3,2.9-0.6,4.2-0.9c1.3-0.3,2.5-0.5,3.5-0.8c1-0.3,2-0.5,2.7-0.7
				C59.2,37.7,59.2,37.5,59.2,37.5z"/>
		</g>
		<ellipse fill="#FFFFFF" cx="31.5" cy="38.5" rx="2.5" ry="2.2"/>
	</g>
	<g>
		<path fill="#BFBFBF" d="M1.8,21.9c0,0,0.9,0.3,2.5,0.6c0.8,0.2,1.8,0.4,2.9,0.6c1.1,0.2,2.4,0.4,3.8,0.5c1.4,0.2,2.9,0.3,4.5,0.4
			c1.6,0.1,3.3,0.2,5.1,0.3c1.8,0,3.6,0.1,5.4,0.1c1.9,0,3.7,0,5.6-0.1c0.9,0,1.9,0,2.8-0.1c0.9,0,1.9-0.1,2.8-0.1
			c1.9-0.1,3.7-0.2,5.4-0.3c1.8-0.2,3.5-0.2,5.1-0.4c1.6-0.2,3.1-0.3,4.5-0.5c2.8-0.3,5.2-0.6,6.8-0.8c1.6-0.2,2.6-0.3,2.6-0.3
			s-0.9,0.2-2.6,0.5c-0.8,0.1-1.8,0.3-2.9,0.5c-1.1,0.2-2.4,0.4-3.8,0.6c-1.4,0.2-2.9,0.4-4.5,0.6c-1.6,0.2-3.3,0.4-5.1,0.5
			c-1.8,0.2-3.6,0.3-5.5,0.4c-0.9,0.1-1.9,0.1-2.8,0.2c-0.9,0-1.9,0.1-2.8,0.1c-1.9,0.1-3.8,0-5.7,0c-1.9,0-3.7-0.1-5.5-0.2
			c-1.8-0.1-3.5-0.3-5.1-0.4c-1.6-0.2-3.1-0.4-4.5-0.6c-1.4-0.2-2.7-0.5-3.8-0.7c-1.1-0.3-2.1-0.5-2.9-0.7c-0.8-0.2-1.4-0.4-1.8-0.6
			C2.1,22,1.8,21.9,1.8,21.9z"/>
	</g>
</g>
</svg>
