<?xml version="1.0" encoding="utf-8"?>
<!-- Generator: Adobe Illustrator 18.1.1, SVG Export Plug-In . SVG Version: 6.00 Build 0)  -->
<svg version="1.1" id="Layer_1" xmlns="http://www.w3.org/2000/svg" xmlns:xlink="http://www.w3.org/1999/xlink" x="0px" y="0px"
	 viewBox="0 0 64 64" enable-background="new 0 0 64 64" xml:space="preserve">
<path fill="#178FEB" d="M40.7,32c-4.7,0-8.5,3.5-9,8c-0.5-4.5-4.3-8-9-8H7v10.8c0,4.9,3.9,9.2,8.9,9.2h15.8h0.1h15.8
	c5,0,8.4-4.3,8.4-9.2V32H40.7z M24,45h-8v-1h8V45z M24,40h-8v-1h8V40z M48,45h-7v-1h7V45z M48,40h-7v-1h7V40z"/>
<g>
	<ellipse fill="#178FEB" cx="20.5" cy="18.9" rx="5.9" ry="5.9"/>
	<ellipse fill="#178FEB" cx="32.2" cy="10" rx="4.1" ry="4"/>
	<ellipse fill="#178FEB" cx="32.2" cy="26.7" rx="4.1" ry="4"/>
	<ellipse fill="#178FEB" cx="43.8" cy="18.9" rx="5.9" ry="5.9"/>
</g>
<polygon fill-rule="evenodd" clip-rule="evenodd" fill="#178FEB" points="37.2,51.1 33.2,58 29.2,51.1 "/>
</svg>
