<?xml version="1.0" encoding="utf-8"?>
<!-- Generator: Adobe Illustrator 19.1.0, SVG Export Plug-In . SVG Version: 6.00 Build 0)  -->
<!DOCTYPE svg PUBLIC "-//W3C//DTD SVG 1.1//EN" "http://www.w3.org/Graphics/SVG/1.1/DTD/svg11.dtd">
<svg version="1.1" id="Layer_1" xmlns="http://www.w3.org/2000/svg" xmlns:xlink="http://www.w3.org/1999/xlink" x="0px" y="0px"
	 viewBox="-282 405.9 31 31" enable-background="new -282 405.9 31 31" xml:space="preserve">
<g>
	<polygon fill="#178FEB" points="-258,432.9 -275,432.9 -275,410.9 -258,410.9 -258,414.9 -255,414.9 -255,410.9 -255,407.9 
		-258,407.9 -278,407.9 -278,435.9 -255,435.9 -255,428.9 -258,428.9 	"/>
	<polygon fill="#178FEB" points="-256,420.9 -256,417.9 -258,417.9 -258,420.9 -261,420.9 -261,422.9 -258,422.9 -258,425.9 
		-256,425.9 -256,422.9 -253,422.9 -253,420.9 	"/>
	<rect x="-271" y="423.9" fill="#178FEB" width="8" height="2"/>
	<rect x="-271" y="426.9" fill="#178FEB" width="8" height="2"/>
	<rect x="-271" y="414.9" fill="#178FEB" width="8" height="2"/>
	<rect x="-271" y="417.9" fill="#178FEB" width="8" height="2"/>
</g>
</svg>
