<?xml version="1.0" encoding="utf-8"?>
<!-- Generator: Adobe Illustrator 18.1.1, SVG Export Plug-In . SVG Version: 6.00 Build 0)  -->
<svg version="1.1" id="Layer_1" xmlns="http://www.w3.org/2000/svg" xmlns:xlink="http://www.w3.org/1999/xlink" x="0px" y="0px"
	 viewBox="0 0 64 64" enable-background="new 0 0 64 64" xml:space="preserve">
<g>
	<g>
		<path fill="#178FEB" d="M32,3.5C19.3,3.5,9,13.8,9,26.4c0,4.1,1.1,8.3,3,11.3l0.2,0.3c0.5,0.8,2.6,3.6,5.5,6.8
			C23.5,51.4,32,60.5,32,60.5s8.5-9.2,14.4-15.8c2.8-3.2,4.8-5.8,5.3-6.6l0.3-0.5c1.9-3,3-7.2,3-11.3C55,13.7,44.7,3.5,32,3.5z
			 M32,43.7c-9.8,0-17.7-7.9-17.7-17.6S22.2,8.5,32,8.5s17.7,7.9,17.7,17.6S41.8,43.7,32,43.7z"/>
	</g>
	<g>
		<g>
			<ellipse fill="#178FEB" cx="32.2" cy="22.3" rx="6.8" ry="6.8"/>
		</g>
		<g>
			<path fill="#178FEB" d="M32,37.4c-2.6,0-5.2-0.4-7.7-1.2l1.9-5.6c2,0.7,4.2,1,6.3,0.9c1.9-0.1,3.9-0.4,5.7-1l2,5.6
				c-2.4,0.8-4.9,1.3-7.5,1.4C32.5,37.4,32.3,37.4,32,37.4z"/>
		</g>
	</g>
</g>
</svg>
