<?xml version="1.0" encoding="utf-8"?>
<!-- Generator: Adobe Illustrator 19.1.0, SVG Export Plug-In . SVG Version: 6.00 Build 0)  -->
<!DOCTYPE svg PUBLIC "-//W3C//DTD SVG 1.1//EN" "http://www.w3.org/Graphics/SVG/1.1/DTD/svg11.dtd">
<svg version="1.1" id="Layer_1" xmlns="http://www.w3.org/2000/svg" xmlns:xlink="http://www.w3.org/1999/xlink" x="0px" y="0px"
	 viewBox="-282 405.9 31 31" enable-background="new -282 405.9 31 31" xml:space="preserve">
<g>
	<g>
		<path fill="#178FEB" d="M-271.7,414c0,1.1-0.8,2.1-2.2,2.1c-1.3-0.1-2.1-1-2.1-2.1c0-1.2,0.9-2.1,2.2-2.1
			C-272.5,411.9-271.7,412.8-271.7,414z M-275.9,430.9v-13.3h4.1v13.3H-275.9z"/>
	</g>
	<g>
		<path fill="#178FEB" d="M-269.5,417.7h3.5l0.2,1.8h0.1c0.5-0.9,1.8-2.1,4-2.1c2.7,0,4.7,1.8,4.7,5.7v7.8h-4.1v-7.3
			c0-1.7-0.6-2.9-2.1-2.9c-1.1,0-1.8,0.8-2.1,1.5c-0.1,0.3-0.1,0.7-0.1,1v7.7h-4.1C-269.5,430.9-269.5,418.9-269.5,417.7z"/>
	</g>
</g>
</svg>
