<?xml version="1.0" encoding="utf-8"?>
<!-- Generator: Adobe Illustrator 18.1.1, SVG Export Plug-In . SVG Version: 6.00 Build 0)  -->
<svg version="1.1" id="Layer_1" xmlns="http://www.w3.org/2000/svg" xmlns:xlink="http://www.w3.org/1999/xlink" x="0px" y="0px"
	 viewBox="0 0 64 64" enable-background="new 0 0 64 64" xml:space="preserve">
<g>
	<path fill="#178FEB" d="M35,56h-6v6h6V56z M29,8h6V2h-6V8z M35,35h-6v-6h6V35z M64,41.8c-2.3-5.1-7.5-5.8-10.7-7.9
		c-1.6-1-2.2-3-2.4-4.7c-1.5,0.2-4.1,0.2-5.3-2.9c-1-2.4-0.6-6.5-3.8-9.9c-2.9-3.1-6.5-4.1-9.8-3.9c4,2.7,2.4,6.8-0.5,6.8
		c-4.1,0-5.2-4.9-11.2-4.9c-1.4,0-2.6,0.4-3.3,0.9c3.3,0.4,4.1,3.2,5.2,5.6c0.8,2,2.3,3.1,4.5,3.7c-0.4,0.2-1.3,0.5-2.5,0.5
		c-2.6,0-4.5-1.4-6.3-3.3c-1.7-1.7-3.5-3.3-6.6-3.3c-1.5,0-2.7,0.5-3.1,0.8c1.7,0.3,4.2,1.3,4.2,3.1c0,1.5-1.7,2.1-3.1,0.7
		c-1.5-1.6-3.7-2.9-6.2-2.9c-1.2,0-2.5,0.4-3,0.9c3,0.3,4.7,2.2,6.5,6.5c1,2.4,2.5,4.6,6.2,4.7c1.7,0,4.1-0.8,5.5,0.6
		c1.3,1.3,0.9,3,1.5,4.3c0.8,1.7,2.3,2.6,5.5,2.7c-2.6,2.2-8.7,0.9-10.8-1.3c0.3,5.5,4.6,10.5,13.3,8.1c1.5-0.4,2.6-0.2,3.1,1.3
		c0.8,2.1,2.7,2.4,4.4,2.2c4.1-0.5,6.5,0.3,8.8,3.1c0.5-4.6-2.8-7.3-4.9-8.6c-2-1.2-2.2-2.5-2.2-3.5c1.4,1.6,3.3,2.3,5.2,2.6
		c3.3,0.5,5.7,1.4,7,3.2c0.4-5.1-5-6.2-5.6-8.4c1.7,1.1,2.9,1.5,4.7,1.4c2.3-0.2,5.2-2,7.2,1.6C58.2,39.7,61.7,40.3,64,41.8"/>
</g>
</svg>
