<?xml version="1.0" encoding="utf-8"?>
<!-- Generator: Adobe Illustrator 19.1.0, SVG Export Plug-In . SVG Version: 6.00 Build 0)  -->
<!DOCTYPE svg PUBLIC "-//W3C//DTD SVG 1.1//EN" "http://www.w3.org/Graphics/SVG/1.1/DTD/svg11.dtd">
<svg version="1.1" id="Layer_1" xmlns="http://www.w3.org/2000/svg" xmlns:xlink="http://www.w3.org/1999/xlink" x="0px" y="0px"
	 viewBox="0 0 31 31" enable-background="new 0 0 31 31" xml:space="preserve">
<path fill="#178FEB" d="M28,9V6h-3V3h-3v3h-5V3h-3v3H9V3H6v3H3v3h3v5H3v3h3v5H3v3h3v3h3v-3h5v3h3v-3h5v3h3v-3h3v-3h-3v-5h3v-3h-3V9
	H28z M9,9h5v5H9V9z M9,22v-5h5v5H9z M22,22h-5v-5h5V22z M22,14h-5V9h5V14z"/>
</svg>
