<?xml version="1.0" encoding="utf-8"?>
<!-- Generator: Adobe Illustrator 18.1.1, SVG Export Plug-In . SVG Version: 6.00 Build 0)  -->
<svg version="1.1" id="Layer_1" xmlns="http://www.w3.org/2000/svg" xmlns:xlink="http://www.w3.org/1999/xlink" x="0px" y="0px"
	 viewBox="0 0 64 64" enable-background="new 0 0 64 64" xml:space="preserve">
<g>
	<path fill="#178FEB" d="M21.9,17.5c0,2.2-1.6,4-4.3,4c-2.5,0-4.1-1.8-4.1-4c0-2.3,1.7-4,4.2-4S21.8,15.2,21.9,17.5z M13.7,50.5
		V24.7h7.9v25.8H13.7z"/>
	<path fill="#178FEB" d="M26.4,32.9c0-3.2-0.1-5.9-0.2-8.2H33l0.4,3.6h0.2c1-1.7,3.6-4.2,7.9-4.2c5.2,0,9.1,3.5,9.1,11.1v15.3h-7.9
		V36.2c0-3.3-1.1-5.6-4-5.6c-2.2,0-3.5,1.5-4.1,3c-0.2,0.5-0.3,1.3-0.3,2v14.9h-7.9V32.9z"/>
</g>
</svg>
