<?xml version="1.0" encoding="utf-8"?>
<!-- Generator: Adobe Illustrator 19.1.0, SVG Export Plug-In . SVG Version: 6.00 Build 0)  -->
<!DOCTYPE svg PUBLIC "-//W3C//DTD SVG 1.1//EN" "http://www.w3.org/Graphics/SVG/1.1/DTD/svg11.dtd">
<svg version="1.1" id="Layer_1" xmlns="http://www.w3.org/2000/svg" xmlns:xlink="http://www.w3.org/1999/xlink" x="0px" y="0px"
	 viewBox="-282 405.9 31 31" enable-background="new -282 405.9 31 31" xml:space="preserve">
<g>
	<g>
		<g>
			<path fill="#BFBFBF" d="M-269.8,425.1c-7.5,0-10.3-2.3-10.4-2.5c-0.6-0.6-1.4-4.5-1.7-6.2v-0.2l0.1-0.2c0-0.1,3.4-4.4,15.3-4.4
				c7.4,0,13.7,2.3,15.1,3.8c0.3,0.3,0.4,0.6,0.4,0.9l-0.1,0.4c-1.3,5.3-1.5,5.4-1.9,5.5C-260.2,424.4-265.7,425.1-269.8,425.1z
				 M-281,416.5c0.5,2.4,1.1,5,1.4,5.4c0,0,6.3,5.2,26.1-0.5c0.1-0.3,0.5-1.3,1.4-4.8c0-0.1,0-0.2,0.1-0.2
				c-0.3-0.9-6.5-3.7-14.5-3.7C-276.6,412.6-280.2,415.7-281,416.5z"/>
		</g>
		<path fill="#626262" d="M-280.3,424.2l0.3,2.9c0,0,11.3,8.6,27-0.6l0.1-2.3l0.2-2.9c0,0.1-16.3,2.9-27.6,0.6l0,1.9"/>
		<g opacity="0.3">
			<g>
				<path fill="#FFFFFF" d="M-252.8,424.2c0,0,0,0.1-0.7,0.3c-0.4,0.1-0.8,0.2-1.4,0.4c-0.3,0.1-0.5,0.2-0.8,0.2
					c-0.3,0.1-0.6,0.1-0.9,0.2c-0.7,0.1-1.4,0.3-2.1,0.4c-0.8,0.1-1.5,0.2-2.4,0.4c-0.8,0.1-1.7,0.2-2.6,0.3
					c-0.4,0.1-0.9,0.1-1.3,0.1s-0.9,0-1.3,0.1c-0.9,0-1.8,0-2.7,0c-0.9-0.1-1.7-0.1-2.6-0.2c-0.8-0.1-1.6-0.2-2.4-0.3
					c-0.7-0.2-1.4-0.3-2-0.5c-0.6-0.2-1.2-0.3-1.8-0.5c-0.5-0.2-1-0.3-1.3-0.5c-0.4-0.1-0.6-0.3-0.8-0.3c-0.2-0.1-0.3-0.1-0.3-0.1
					s0.1,0,0.3,0.1c0.2,0.1,0.5,0.2,0.8,0.3c0.4,0.1,0.8,0.3,1.3,0.4c0.5,0.2,1.1,0.3,1.8,0.5c0.7,0.1,1.4,0.3,2.1,0.4
					c0.8,0.1,1.6,0.2,2.4,0.3s1.7,0.1,2.6,0.2c0.9,0,1.8,0,2.6,0c0.4,0,0.9,0,1.3-0.1c0.4,0,0.9,0,1.3-0.1c0.9-0.1,1.7-0.1,2.5-0.3
					c0.8-0.1,1.6-0.2,2.4-0.4c0.7-0.2,1.5-0.3,2.1-0.4c0.7-0.1,1.2-0.3,1.8-0.4c0.5-0.1,1-0.2,1.4-0.3
					C-252.8,424.3-252.8,424.2-252.8,424.2z"/>
			</g>
		</g>
		<g>
			<ellipse fill="#FFFFFF" cx="-266.7" cy="424.6" rx="1.2" ry="1.1"/>
		</g>
	</g>
	<g>
		<path fill="#BFBFBF" d="M-281.5,416.3c0,0,0.5,0.1,1.3,0.3c0.8,0.2,2,0.3,3.4,0.4c1.4,0.2,3,0.2,4.8,0.3c1.8,0,3.6,0.1,5.5,0
			c0.9,0,1.9,0,2.8-0.1c0.9-0.1,1.8-0.1,2.7-0.1c0.9-0.1,1.7-0.1,2.5-0.2c0.8-0.1,1.6-0.1,2.3-0.2c1.4-0.1,2.6-0.2,3.4-0.3
			c0.8-0.1,1.3-0.1,1.3-0.1s-0.5,0.1-1.3,0.3s-2,0.5-3.4,0.7c-1.4,0.2-3,0.5-4.8,0.7c-0.9,0.1-1.8,0.2-2.7,0.2
			c-0.9,0.1-1.9,0.1-2.8,0.1s-1.9,0-2.8,0c-0.9,0-1.9-0.1-2.7-0.1c-1.8-0.1-3.4-0.4-4.8-0.6c-1.4-0.2-2.6-0.6-3.3-0.8
			C-281.1,416.5-281.5,416.3-281.5,416.3z"/>
	</g>
</g>
</svg>
