<?xml version="1.0" encoding="utf-8"?>
<!-- Generator: Adobe Illustrator 19.1.0, SVG Export Plug-In . SVG Version: 6.00 Build 0)  -->
<!DOCTYPE svg PUBLIC "-//W3C//DTD SVG 1.1//EN" "http://www.w3.org/Graphics/SVG/1.1/DTD/svg11.dtd">
<svg version="1.1" id="Layer_1" xmlns="http://www.w3.org/2000/svg" xmlns:xlink="http://www.w3.org/1999/xlink" x="0px" y="0px"
	 viewBox="-282 405.9 31 31" enable-background="new -282 405.9 31 31" xml:space="preserve">
<g>
	<g>
		<g>
			<ellipse fill="#178FEB" cx="-266.5" cy="410.4" rx="2" ry="2"/>
		</g>
		<g>
			<ellipse fill="#178FEB" cx="-266.5" cy="418.8" rx="2" ry="2"/>
		</g>
		<g>
			<g>
				<ellipse fill="#178FEB" cx="-272" cy="414.8" rx="3" ry="3"/>
			</g>
			<g>
				<ellipse fill="#178FEB" cx="-261" cy="414.8" rx="3" ry="3"/>
			</g>
		</g>
	</g>
	<path fill="#178FEB" d="M-261.9,420.9c-2.3,0-4.2,1.8-4.5,4c-0.2-2.3-2.1-4-4.5-4h-8.1v5.9c0,2.5,2.2,4.1,4.6,4.1h6.4l1.5,2.5
		l1.5-2.5h8c2.5,0,3-1.6,3-4.1v-5.9H-261.9z M-271,426.9h-5v-1h5V426.9z M-271,424.9h-5v-1h5V424.9z M-257,426.9h-5v-1h5V426.9z
		 M-257,424.9h-5v-1h5V424.9z"/>
</g>
</svg>
