<?xml version="1.0" encoding="utf-8"?>
<!-- Generator: Adobe Illustrator 19.2.0, SVG Export Plug-In . SVG Version: 6.00 Build 0)  -->
<svg version="1.1" id="Layer_1" xmlns="http://www.w3.org/2000/svg" xmlns:xlink="http://www.w3.org/1999/xlink" x="0px" y="0px"
	 viewBox="0 0 31 31" enable-background="new 0 0 31 31" xml:space="preserve">
<g>
	<g>
		<g>
			<g>
				<g>
					<g>
						<rect x="2.5" y="13.5" fill="#178FEB" width="26" height="4"/>
					</g>
					<g>
						<path fill="#178FEB" d="M28,14v3H3v-3H28 M29,13h-1H3H2v1v3v1h1h25h1v-1v-3V13L29,13z"/>
					</g>
				</g>
			</g>
		</g>
	</g>
	<g>
		<g>
			<g>
				<g>
					<g>
						<rect x="2.5" y="21.5" fill="#178FEB" width="26" height="4"/>
					</g>
					<g>
						<path fill="#178FEB" d="M28,22v3H3v-3H28 M29,21h-1H3H2v1v3v1h1h25h1v-1v-3V21L29,21z"/>
					</g>
				</g>
			</g>
		</g>
	</g>
	<g>
		<g>
			<g>
				<g>
					<g>
						<rect x="2.5" y="5.5" fill="#178FEB" width="26" height="4"/>
					</g>
					<g>
						<path fill="#178FEB" d="M28,6v3H3V6H28 M29,5h-1H3H2v1v3v1h1h25h1V9V6V5L29,5z"/>
					</g>
				</g>
			</g>
		</g>
	</g>
</g>
</svg>
