<?xml version="1.0" encoding="utf-8"?>
<!-- Generator: Adobe Illustrator 19.1.0, SVG Export Plug-In . SVG Version: 6.00 Build 0)  -->
<svg version="1.1" id="Layer_1" xmlns="http://www.w3.org/2000/svg" xmlns:xlink="http://www.w3.org/1999/xlink" x="0px" y="0px"
	 viewBox="0 0 31 31" enable-background="new 0 0 31 31" xml:space="preserve">
<g>
	<g>
		<path fill="#178FEB" d="M29,28l-6.9-6.9c1.8-2,2.9-4.7,2.9-7.6C25,7.2,19.8,2,13.5,2S2,7.2,2,13.5C2,19.8,7.2,25,13.5,25
			c2.4,0,4.6-0.7,6.5-2l7,7L29,28z M5,13.5C5,8.8,8.8,5,13.5,5S22,8.8,22,13.5c0,4.7-3.8,8.5-8.5,8.5S5,18.2,5,13.5z"/>
	</g>
	<g>
		<polygon fill="#178FEB" points="15,9 12,9 12,12 9,12 9,15 12,15 12,18 15,18 15,15 18,15 18,12 15,12 		"/>
	</g>
</g>
</svg>
