<?xml version="1.0" encoding="utf-8"?>
<!-- Generator: Adobe Illustrator 19.1.0, SVG Export Plug-In . SVG Version: 6.00 Build 0)  -->
<svg version="1.1" id="Layer_1" xmlns="http://www.w3.org/2000/svg" xmlns:xlink="http://www.w3.org/1999/xlink" x="0px" y="0px"
	 viewBox="0 0 31 31" enable-background="new 0 0 31 31" xml:space="preserve">
<g>
	<path fill="#178FEB" d="M25,13v-3c0-5.2-4.3-9.5-9.5-9.5S6,4.8,6,10v3H4v18h23V13H25z M9,10c0-3.6,2.9-6.5,6.5-6.5S22,6.4,22,10v3
		H9V10z M17.3,22.5V26h-3.6v-3.5c-0.7-0.5-1.2-1.2-1.2-2c0-1.4,1.4-2.5,3-2.5s3,1.1,3,2.5C18.5,21.3,18,22,17.3,22.5z"/>
</g>
</svg>
