<?xml version="1.0" encoding="utf-8"?>
<!-- Generator: Adobe Illustrator 19.1.0, SVG Export Plug-In . SVG Version: 6.00 Build 0)  -->
<svg version="1.1" id="Layer_1" xmlns="http://www.w3.org/2000/svg" xmlns:xlink="http://www.w3.org/1999/xlink" x="0px" y="0px"
	 viewBox="0 0 31 31" enable-background="new 0 0 31 31" xml:space="preserve">
<g>
	<path fill="#178FEB" d="M26.2,4.3c-3.1-3-7.1-4.5-11.4-4.3C6.9,0.4,0.4,6.9,0,14.8c-0.2,4.3,1.3,8.3,4.3,11.4
		c3,3.1,6.9,4.8,11.2,4.8v-2c-3.7,0-7.2-1.5-9.8-4.2c-2.6-2.7-3.9-6.2-3.7-10C2.3,8,8,2.3,14.9,2c3.7-0.2,7.3,1.1,10,3.7
		c2.7,2.6,4.2,6,4.2,9.8c0,3.1-2,5.7-4.9,6.6c0,0,0-0.1,0-0.1c0.3-0.7,0.3-1.5,0.5-2.3c0.2-1-4.3-2.9-4.7-1.7
		c-0.1,0.5-0.4,1.9-0.6,2.3c-0.3,0.3-0.9,0.2-1.3-0.2c-1-0.9-2.2-2.2-3.2-3.2l0,0c0,0-0.1-0.1-0.1-0.1c0,0-0.1-0.1-0.1-0.1
		c-1-1-2.3-2.1-3.2-3.2c-0.3-0.4-0.5-1-0.2-1.3c0.4-0.3,1.8-0.5,2.3-0.6C14.9,11.3,13,6.8,12,7c-0.8,0.2-1.6,0.2-2.3,0.5
		C9.6,7.6,9.5,7.7,9.4,7.7C6.8,9.4,6.5,13.3,9,16.3c1,1.1,2,2.2,3,3.3l0,0c0,0,0.1,0.1,0.1,0.1c0,0,0.1,0.1,0.1,0.1l0,0
		c1.1,1,2.3,2.5,4.4,3.9c0,0,1.7,0.8,3.7,0.7l0,0h1.9c4.9,0,8.9-4,8.9-8.9C31,11.2,29.3,7.2,26.2,4.3z"/>
</g>
</svg>
