<?xml version="1.0" encoding="utf-8"?>
<!-- Generator: Adobe Illustrator 19.1.0, SVG Export Plug-In . SVG Version: 6.00 Build 0)  -->
<svg version="1.1" id="Layer_1" xmlns="http://www.w3.org/2000/svg" xmlns:xlink="http://www.w3.org/1999/xlink" x="0px" y="0px"
	 viewBox="0 0 31 31" enable-background="new 0 0 31 31" xml:space="preserve">
<g>
	<path fill="#178FEB" d="M29,27.5l-6.9-6.9c1.8-2,2.9-4.7,2.9-7.6c0-6.3-5.2-11.5-11.5-11.5S2,6.7,2,13c0,6.3,5.2,11.5,11.5,11.5
		c2.4,0,4.6-0.7,6.5-2l7,7L29,27.5z M5,13c0-4.7,3.8-8.5,8.5-8.5S22,8.3,22,13c0,4.7-3.8,8.5-8.5,8.5S5,17.7,5,13z"/>
</g>
</svg>
