<?xml version="1.0" encoding="utf-8"?>
<!-- Generator: Adobe Illustrator 19.2.0, SVG Export Plug-In . SVG Version: 6.00 Build 0)  -->
<svg version="1.1" id="Layer_1" xmlns="http://www.w3.org/2000/svg" xmlns:xlink="http://www.w3.org/1999/xlink" x="0px" y="0px"
	 viewBox="0 0 31 31" enable-background="new 0 0 31 31" xml:space="preserve">
<g>
	<g>
		<g>
			<path fill="#178FEB" d="M18.9,22.6c-1.9,1.2-4.1,1.9-6.4,1.9c-6.6,0-12-5.4-12-12s5.4-12,12-12s12,5.4,12,12c0,2.8-1,5.4-2.7,7.6
				l6.9,6.9L26,29.7L18.9,22.6z M12.5,4.5c-4.4,0-8,3.6-8,8s3.6,8,8,8s8-3.6,8-8S16.9,4.5,12.5,4.5z"/>
		</g>
		<g>
			<path fill="#178FEB" d="M12.5,1C18.8,1,24,6.2,24,12.5c0,2.9-1.1,5.6-2.9,7.6L28,27l-2,2l-7-7c-1.8,1.3-4.1,2-6.5,2
				C6.2,24,1,18.8,1,12.5C1,6.2,6.2,1,12.5,1 M12.5,21c4.7,0,8.5-3.8,8.5-8.5C21,7.8,17.2,4,12.5,4S4,7.8,4,12.5
				C4,17.2,7.8,21,12.5,21 M12.5,0C5.6,0,0,5.6,0,12.5S5.6,25,12.5,25c2.2,0,4.4-0.6,6.3-1.7l6.4,6.4l0.7,0.7l0.7-0.7l2-2l0.7-0.7
				l-0.7-0.7L22.5,20c1.6-2.2,2.5-4.8,2.5-7.5C25,5.6,19.4,0,12.5,0L12.5,0z M12.5,20C8.4,20,5,16.6,5,12.5S8.4,5,12.5,5
				S20,8.4,20,12.5S16.6,20,12.5,20L12.5,20z"/>
		</g>
	</g>
</g>
</svg>
